# xmcd
#
# Track frame offsets: 
#        150
#        12350
#        23032
#        37755
#        50820
#        63690
#        78652
#        91200
#        104315
#        116540
#        129455
#        142957
#        155730
#        169545
#        182659
#        195660
#        209675
#        219397
#
# Disc length: 3109 seconds
#
# Revision: 7
# Processed by: cddbd v1.5.2PL0 Copyright (c) Steve Scherf et al.
# Submitted via: ExactAudioCopyFreeDBPlugin 1.0
#
DISCID=fa0c2312
DTITLE=Various Artist - Willie Dixon:  The Chess Box [box set]
DYEAR=1989
DGENRE=Blues
TTITLE0=Little Walter - My Babe
TTITLE1=The Big Three - Violent Love
TTITLE2=Eddie Boyd - Third Degree
TTITLE3=Willie Mabon - Seventh Son
TTITLE4=Willie Dixon - Crazy for My Baby
TTITLE5=Willie Dixon - Pain in My Heart
TTITLE6=Muddy Waters - (I'm Your) Hoochie Coochie Man
TTITLE7=Howlin' Wolf - Evil
TTITLE8=Little Walter - Mellow Down Easy
TTITLE9=Jimmy Witherspoon - When the Lights Go Out
TTITLE10=Muddy Waters - Young Fashioned Ways
TTITLE11=Bo Diddley - Pretty Thing
TTITLE12=Muddy Waters - I'm Ready
TTITLE13=Lowell Fulson - Do Me Right
TTITLE14=Muddy Waters - I Just Want to Make Love to You
TTITLE15=Lowell Fulson - Tollin' Bells
TTITLE16=Willie Dixon - 29 Ways
TTITLE17=Willie Dixon - Walking the Blues
EXTD=YEAR: 1988 ID3G:   0
EXTT0=
EXTT1=
EXTT2=
EXTT3=
EXTT4=
EXTT5=
EXTT6=
EXTT7=
EXTT8=
EXTT9=
EXTT10=
EXTT11=
EXTT12=
EXTT13=
EXTT14=
EXTT15=
EXTT16=
EXTT17=
PLAYORDER=
